name D:\school\WTK\thesis\model\3dpredictsim\Results\test_WL_v2\Fal_s1_bCst_PF_Natali2010_ls135_k150_Tmtp_ig24.mot
datacolumns 128
datarows 4
range 1.15179265 1.18634643
endheader
time	pelvis_tilt	pelvis_list	pelvis_rotation	pelvis_tx	pelvis_ty	pelvis_tz	hip_flexion_l	hip_adduction_l	hip_rotation_l	hip_flexion_r	hip_adduction_r	hip_rotation_r	knee_angle_l	knee_angle_r	ankle_angle_l	ankle_angle_r	subtalar_angle_l	subtalar_angle_r	tmt_angle_l	tmt_angle_r	mtp_angle_l	mtp_angle_r	lumbar_extension	lumbar_bending	lumbar_rotation	arm_flex_l	arm_add_l	arm_rot_l	arm_flex_r	arm_add_r	arm_rot_r	elbow_flex_l	elbow_flex_r	pro_sup_l	pro_sup_r	glut_med1_l/activation	glut_med2_l/activation	glut_med3_l/activation	glut_min1_l/activation	glut_min2_l/activation	glut_min3_l/activation	semimem_l/activation	semiten_l/activation	bifemlh_l/activation	bifemsh_l/activation	sar_l/activation	add_long_l/activation	add_brev_l/activation	add_mag1_l/activation	add_mag2_l/activation	add_mag3_l/activation	tfl_l/activation	pect_l/activation	grac_l/activation	glut_max1_l/activation	glut_max2_l/activation	glut_max3_l/activation	iliacus_l/activation	psoas_l/activation	quad_fem_l/activation	gem_l/activation	peri_l/activation	rect_fem_l/activation	vas_med_l/activation	vas_int_l/activation	vas_lat_l/activation	med_gas_l/activation	lat_gas_l/activation	soleus_l/activation	tib_post_l/activation	flex_dig_l/activation	flex_hal_l/activation	tib_ant_l/activation	per_brev_l/activation	per_long_l/activation	per_tert_l/activation	ext_dig_l/activation	ext_hal_l/activation	ercspn_l/activation	intobl_l/activation	extobl_l/activation	glut_med1_r/activation	glut_med2_r/activation	glut_med3_r/activation	glut_min1_r/activation	glut_min2_r/activation	glut_min3_r/activation	semimem_r/activation	semiten_r/activation	bifemlh_r/activation	bifemsh_r/activation	sar_r/activation	add_long_r/activation	add_brev_r/activation	add_mag1_r/activation	add_mag2_r/activation	add_mag3_r/activation	tfl_r/activation	pect_r/activation	grac_r/activation	glut_max1_r/activation	glut_max2_r/activation	glut_max3_r/activation	iliacus_r/activation	psoas_r/activation	quad_fem_r/activation	gem_r/activation	peri_r/activation	rect_fem_r/activation	vas_med_r/activation	vas_int_r/activation	vas_lat_r/activation	med_gas_r/activation	lat_gas_r/activation	soleus_r/activation	tib_post_r/activation	flex_dig_r/activation	flex_hal_r/activation	tib_ant_r/activation	per_brev_r/activation	per_long_r/activation	per_tert_r/activation	ext_dig_r/activation	ext_hal_r/activation	ercspn_r/activation	intobl_r/activation	extobl_r/activation	
          1.15179265	         -2.92860185	         -2.30052388	          5.54624354	          1.43974081	          0.91779625	         -0.00221859	        -16.98600268	         -1.07415548	          7.26497311	         29.65845002	          3.41297881	         -3.05913921	         -7.41531886	         -9.81689574	          1.28451208	          8.51921850	          7.25889943	         -5.64174360	          2.48487918	         -1.98680436	          6.96847586	        -12.76380318	         -2.30183589	          0.37804410	         -2.25981755	          5.63438104	        -13.45078234	         17.71038429	         -4.24534081	        -13.45783319	          7.96494185	         34.49917462	         15.62772514	         86.51662706	         86.51662706	          0.26556975	          0.10093224	          0.08058136	          0.30328379	          0.19784761	          0.11613548	          0.05000164	          0.05000031	          0.05000016	          0.05505290	          0.12030422	          0.05000119	          0.05000129	          0.05000050	          0.05000099	          0.05000043	          0.32126476	          0.06004414	          0.05000170	          0.05000132	          0.05000085	          0.05000065	          0.46811155	          0.68923532	          0.05000009	          0.05000042	          0.05378069	          0.28739218	          0.05000018	          0.05000018	          0.05000017	          0.29600946	          0.39857132	          0.34014500	          0.25795269	          0.25586670	          0.33771235	          0.05000004	          0.05959826	          0.12096788	          0.05000036	          0.05000008	          0.05000026	          0.05000000	          0.05000004	          0.05000020	          0.05959825	          0.05959825	          0.05000021	          0.05959829	          0.05959828	          0.05959079	          0.23811362	          0.09337000	          0.14938351	          0.09060776	          0.05000016	          0.15959312	          0.22769090	          0.21887786	          0.21286780	          0.11039632	          0.05000012	          0.05000250	          0.15724864	          0.05001482	          0.06737032	          0.15144141	          0.05000041	          0.05000015	          0.20815188	          0.29674854	          0.13842335	          0.05000010	          0.08027552	          0.07813491	          0.07208729	          0.06823620	          0.06920082	          0.06114872	          0.05000004	          0.05000033	          0.05000030	          0.44444791	          0.24506070	          0.17386265	          0.10481245	          0.51283932	          0.20745705	          0.05959826	          0.12312477	          0.10093105	
          1.16331058	         -2.93017648	         -2.38386511	          5.86226621	          1.45710218	          0.91693963	         -0.00205672	        -17.00884382	         -1.39150641	          7.09918686	         29.04468865	          3.77833302	         -2.81877157	         -9.08396630	        -10.31977913	          0.81119501	          7.81456670	          8.25998976	         -5.93005347	          1.49870758	         -2.06943445	          9.15240593	        -12.81140459	         -2.09413929	          0.55470852	         -2.33402540	          5.32921413	        -13.45703720	         17.98664352	         -5.15247014	        -13.45010449	          7.76676475	         35.76998104	         15.20963145	         86.51662706	         86.51662706	          0.22279995	          0.08467719	          0.06760387	          0.25444024	          0.16598443	          0.09743198	          0.05000250	          0.05000095	          0.05000116	          0.05000026	          0.10092950	          0.10059573	          0.05000251	          0.05959830	          0.05959209	          0.05959834	          0.26952539	          0.05037653	          0.05000828	          0.05000495	          0.05000403	          0.05000603	          0.39272250	          0.65037036	          0.05225070	          0.05959741	          0.05763214	          0.24254055	          0.13895589	          0.13764786	          0.12942995	          0.24833729	          0.33438166	          0.29902821	          0.22538991	          0.21466014	          0.28332531	          0.05000003	          0.05000015	          0.13410190	          0.05000010	          0.05000003	          0.05000016	          0.05640469	          0.07103894	          0.05959832	          0.05000001	          0.05000004	          0.09601821	          0.05000005	          0.05000005	          0.05000006	          0.19976562	          0.07833285	          0.12532540	          0.07601549	          0.07103649	          0.13389099	          0.31821075	          0.30768286	          0.19054060	          0.09799648	          0.05000026	          0.07910555	          0.13580881	          0.05000084	          0.09502714	          0.14176845	          0.05000032	          0.07103820	          0.55208698	          0.24895740	          0.11613045	          0.06058499	          0.08454040	          0.08635871	          0.07537487	          0.07021653	          0.07103932	          0.06201962	          0.05959840	          0.05250752	          0.05959875	          0.45973062	          0.24498678	          0.21640764	          0.10009569	          0.43024690	          0.17404626	          0.05000000	          0.10329560	          0.08467616	
          1.17482850	         -2.92769135	         -2.47151373	          6.14613098	          1.47480782	          0.91613756	         -0.00192094	        -16.99000678	         -1.71227641	          6.92382481	         28.31726111	          4.03426319	         -2.54124185	        -10.81104521	        -10.93019206	          0.20492825	          7.17230272	          9.23523986	         -6.22358812	          0.33029684	         -2.21642232	         11.56249669	        -12.83118629	         -1.86260644	          0.74482064	         -2.39491767	          4.92975138	        -13.45881158	         18.16718576	         -6.10050510	        -13.45103313	          7.61485027	         37.03983980	         14.86402285	         86.51662706	         86.51662706	          0.31289078	          0.07104002	          0.05671648	          0.31099614	          0.13925284	          0.08174069	          0.05000105	          0.05000016	          0.05000013	          0.05000027	          0.08467531	          0.08439492	          0.05000029	          0.05000039	          0.05000065	          0.05000059	          0.27440018	          0.05000138	          0.05000060	          0.05000315	          0.05000173	          0.05000081	          0.32947492	          0.62783410	          0.05000024	          0.05000112	          0.05000046	          0.20373834	          0.11657782	          0.11548043	          0.10858588	          0.20834270	          0.28052968	          0.25086987	          0.18909105	          0.18008940	          0.23769607	          0.05000002	          0.06841071	          0.15660758	          0.05000018	          0.05000010	          0.05000018	          0.05000016	          0.05959816	          0.05000006	          0.22930463	          0.22590524	          0.26044817	          0.34758338	          0.24165570	          0.18965610	          0.16759476	          0.06571880	          0.10514203	          0.07396245	          0.05959633	          0.11232796	          0.26696313	          0.25813078	          0.15985433	          0.11534044	          0.05000048	          0.06636618	          0.11393731	          0.05000059	          0.11262875	          0.11893699	          0.05003334	          0.05959762	          0.46317369	          0.20886302	          0.20978632	          0.05082783	          0.07092530	          0.07245077	          0.06323586	          0.05890822	          0.05959851	          0.05203140	          0.05000017	          0.05000038	          0.05000070	          0.52487380	          0.33251940	          0.18155548	          0.27530787	          0.53717806	          0.14601656	          0.05869702	          0.12993307	          0.07103912	
          1.18634643	         -2.92338207	         -2.55540399	          6.39188431	          1.49263122	          0.91543784	         -0.00176086	        -16.87361218	         -2.02533143	          6.75953242	         27.55699833	          4.25718003	         -2.26490121	        -12.66686583	        -11.50158939	         -0.54877480	          6.58749851	         10.19145213	         -6.51632375	         -0.97949318	         -2.12659601	         14.13741894	        -12.84041232	         -1.63275554	          0.93961426	         -2.44562095	          4.47383534	        -13.46476319	         18.27721230	         -7.03795071	        -13.45237301	          7.50997019	         38.28627206	         14.56535659	         86.51662706	         86.51662706	          0.27339904	          0.05959909	          0.05000025	          0.26091076	          0.11682631	          0.06857645	          0.05000181	          0.05000026	          0.05000023	          0.05000021	          0.07103863	          0.09847018	          0.05000300	          0.05000247	          0.05000322	          0.05000115	          0.23020869	          0.06483964	          0.05000172	          0.05000310	          0.05000212	          0.05000172	          0.27641320	          0.58489188	          0.05000058	          0.05000155	          0.05000022	          0.17092642	          0.14340034	          0.14340031	          0.13749334	          0.17478922	          0.23535052	          0.21046740	          0.15863807	          0.15108620	          0.19941532	          0.06192783	          0.05739351	          0.15670544	          0.05000043	          0.10720394	          0.05000078	          0.06597082	          0.05000001	          0.05000003	          0.32589008	          0.32653409	          0.35353332	          0.29160548	          0.21082990	          0.23523947	          0.14060386	          0.06314783	          0.08820931	          0.06205102	          0.05000064	          0.09423764	          0.22396890	          0.21655910	          0.13411041	          0.14895392	          0.05000051	          0.05567838	          0.09558811	          0.20217511	          0.17431515	          0.14558601	          0.05000009	          0.05000010	          0.38857984	          0.17522580	          0.17600077	          0.05000009	          0.09125579	          0.10535256	          0.07927897	          0.05000005	          0.05000028	          0.05000002	          0.05000015	          0.05000048	          0.05000048	          0.59992305	          0.32652596	          0.19826508	          0.35449261	          0.54953281	          0.26495338	          0.08011992	          0.10900743	          0.05959832	
